{"title":"The House of Mirth 2000 DVDRip XviD AC3 titler","uid":8354926,"size":1489334292,"categoryP":"video","categoryS":"movies","magnet":"?xt=urn:btih:b42323e0124fea7cafe3633b1b326ebc7c962c8d&amp;dn=The+House+of+Mirth+2000+DVDRip+XviD+AC3+titler&amp;tr=udp%3A%2F%2Ftracker.openbittorrent.com%3A80&amp;tr=udp%3A%2F%2Fopen.demonii.com%3A1337&amp;tr=udp%3A%2F%2Ftracker.coppersurfer.tk%3A6969&amp;tr=udp%3A%2F%2Fexodus.desync.com%3A6969","seeders":7,"leechers":5,"uploader":"movieZ.freak","files":4,"time":1365463104,"description":"SOURCE: DVD9\n &lt;a href=&quot;\nhttp://www.imdb.com/title/tt0200720/&quot; rel=&quot;nofollow&quot; target=&quot;_NEW&quot;&gt;\nhttp://www.imdb.com/title/tt0200720/&lt;/a&gt;\n\n-SUBTITLES: English\n\n-SAMPLE: Yes\n\n-LANGUAGE: English\n\n-RUNTIME: 2h 14m\n\n\nDIRECTOR: Terence Davies\n\n\nCAST:\n--------\nGillian Anderson, Dan Aykroyd, Terry Kinney, Anthony LaPaglia, Laura Linney, Elizabeth McGovern, Eric Stoltz\n\nPLOT:\n----------\nTerence Davies' The House of Mirth is a tragic love story set against a background of wealth and social hypocrisy in turn of the century New York. Lily Bart is a ravishing socialite at the height of her success who quickly discovers the precariousness of her position when her beauty and charm start attracting unwelcome interest and jealousy. Torn between her heart and her head, Lilly always seems to do the right thing at the wrong time. She seeks a wealthy husband and in trying to conform to social expectations, she misses her chance for real love with\nLawrence Selden.\n\n\nGeneral\n---------\n\nFormat : AVI\nFormat/Info : Audio Video Interleave\nFile size : 1.37 GiB\nDuration : 2h 14mn\nOverall bit rate : 1 454 Kbps\nWriting application : VirtualDubMod 1.5.10.3\nWriting library : VirtualDubMod build 2550/release\n\nVideo\n-------------\n\nFormat : MPEG-4 Visual\nFormat profile : Advanced Simple@L5\nFormat settings, BVOP : 1\nFormat settings, QPel : No\nFormat settings, GMC : No warppoints\nFormat settings, Matrix : Custom\nCodec ID : XVID\nCodec ID/Hint : XviD\nDuration : 2h 14mn\nBit rate : 1 255 Kbps\nWidth : 720 pixels\nHeight : 400 pixels\nDisplay aspect ratio : 16:9\nFrame rate : 25.000 fps\nColor space : YUV\nChroma subsampling : 4:2:0\nBit depth : 8 bits\nScan type : Progressive\nCompression mode : Lossy\nBits/(Pixel*Frame) : 0.174\nStream size : 1.18 GiB (86%)\nWriting library : XviD 64\n\nAudio\n-----------\n\nFormat : AC-3\nFormat/Info : Audio Coding 3\nMode extension : CM (complete main)\nFormat settings, Endianness : Big\nCodec ID : 2000\nDuration : 2h 14mn\nBit rate mode : Constant\nBit rate : 192 Kbps\nChannel(s) : 2 channels\nChannel positions : Front: L R\nSampling rate : 48.0 KHz\nBit depth : 16 bits\nCompression mode : Lossy\nStream size : 185 MiB (13%)\nAlignment : Split accross interleaves\nInterleave, duration : 96 ms (2.40 video frames)\nInterleave, preload duration : 96 ms\nLanguage : English","torrent":{"xt":"urn:btih:b42323e0124fea7cafe3633b1b326ebc7c962c8d","amp;dn":"The+House+of+Mirth+2000+DVDRip+XviD+AC3+titler","amp;tr":["udp%3A%2F%2Ftracker.openbittorrent.com%3A80","udp%3A%2F%2Fopen.demonii.com%3A1337","udp%3A%2F%2Ftracker.coppersurfer.tk%3A6969","udp%3A%2F%2Fexodus.desync.com%3A6969"],"infoHash":"b42323e0124fea7cafe3633b1b326ebc7c962c8d","infoHashBuffer":{"type":"Buffer","data":[180,35,35,224,18,79,234,124,175,227,99,59,27,50,110,188,124,150,44,141]},"announce":[],"urlList":[]}}